<?xml version="1.0" standalone="no"?>
<!DOCTYPE svg PUBLIC "-//W3C//DTD SVG 1.1//EN" "http://www.w3.org/Graphics/SVG/1.1/DTD/svg11.dtd" >
<svg xmlns="http://www.w3.org/2000/svg" xmlns:xlink="http://www.w3.org/1999/xlink" version="1.1">
<metadata></metadata>
<defs>
<font id="00499regular" horiz-adv-x="1024" >
<font-face units-per-em="2048" ascent="1638" descent="-410" />
<missing-glyph horiz-adv-x="588" />
<glyph horiz-adv-x="0" />
<glyph unicode="&#xd;" horiz-adv-x="588" />
<glyph unicode=" "  horiz-adv-x="588" />
<glyph unicode="&#x09;" horiz-adv-x="588" />
<glyph unicode="&#xa0;" horiz-adv-x="588" />
<glyph unicode="!" horiz-adv-x="821" d="M303 0v217h217v-217h-217zM303 1421h217l-35 -1034h-147z" />
<glyph unicode="&#x22;" horiz-adv-x="614" d="M90 881v555h139v-555h-139zM385 881v555h139v-555h-139z" />
<glyph unicode="#" horiz-adv-x="1575" d="M88 449l53 147h310l92 262h-330l51 146h332l162 454h166l-162 -454h256l164 454h164l-160 -454h301l-51 -146h-303l-93 -262h322l-51 -147h-322l-162 -453h-165l161 453h-258l-162 -453h-165l159 453h-309zM616 594h261l92 264h-260z" />
<glyph unicode="$" horiz-adv-x="1176" d="M176 1065q0 157 110 251q97 83 261 105v187h100v-181q123 0 242 -27q39 -9 82 -22l-23 -166q-70 34 -144 51q-81 19 -156 19l-1 -455q180 -71 270 -151q127 -112 127 -270q0 -170 -116 -278q-106 -98 -281 -124v-176h-100v172h-21q-179 0 -340 61l21 183 q84 -44 165.5 -65t174.5 -21v516q-371 138 -371 391zM367 1079q0 -131 180 -213v410q-180 -44 -180 -197zM647 164q86 17 143 73q62 62 62 146q0 155 -205 252v-471z" />
<glyph unicode="%" horiz-adv-x="1778" d="M76 1063q0 166 81 270q90 115 251 115t250 -115q81 -104 81 -270q0 -164 -82 -269q-90 -116 -249 -116q-160 0 -250 115q-82 105 -82 270zM240 1065q0 -102 34 -171q45 -91 136 -91q92 0 135 91q33 68 33 171t-33 171q-43 91 -135 91q-91 0 -135 -91q-35 -70 -35 -171z M449 -27l755 1475h137l-753 -1475h-139zM1051 358q0 166 81 270q89 115 250 115q162 0 250 -114q80 -104 80 -271q0 -165 -81 -270q-89 -115 -249 -115q-159 0 -249 116q-82 105 -82 269zM1214 360q0 -100 34 -170q44 -92 134 -92q91 0 136 91q34 70 34 171q0 188 -99 245 q-31 18 -71 18q-91 0 -135 -92q-33 -69 -33 -171z" />
<glyph unicode="&#x26;" horiz-adv-x="1421" d="M113 383q0 273 311 405q-172 182 -172 336q0 155 121 243q107 79 268 79q157 0 260 -74q117 -84 117 -235q0 -239 -328 -385l334 -361q56 77 87 175q38 118 38 210h170q0 -127 -52 -272q-46 -128 -130 -234l249 -270h-235l-133 147q-174 -172 -430 -172q-200 0 -331 102 q-144 112 -144 306zM305 387q0 -119 92 -195q87 -71 209 -71q92 0 167 35.5t138 105.5l-383 418q-223 -103 -223 -293zM432 1118q0 -59 34.5 -115.5t127.5 -146.5q250 106 250 262q0 84 -62 135q-58 47 -145 47q-86 0 -143 -47q-62 -51 -62 -135z" />
<glyph unicode="'" horiz-adv-x="317" d="M90 881v555h139v-555h-139z" />
<glyph unicode="(" horiz-adv-x="662" d="M135 637q0 443 328 909h149q-293 -482 -293 -909q0 -419 293 -907h-149q-328 470 -328 907z" />
<glyph unicode=")" horiz-adv-x="662" d="M49 -270q293 485 293 907q0 216 -71 438.5t-222 470.5h150q329 -473 329 -909q0 -431 -329 -907h-150z" />
<glyph unicode="*" d="M111 1161l55 168l303 -147l-39 336h164l-39 -336l303 147l53 -168l-329 -61l233 -244l-143 -106l-160 299l-160 -299l-145 106l235 244z" />
<glyph unicode="+" horiz-adv-x="1706" d="M254 541v139h528v541h142v-541h528v-139h-528v-541h-142v541h-528z" />
<glyph unicode="," horiz-adv-x="588" d="M98 -254l127 471h207l-168 -471h-166z" />
<glyph unicode="-" horiz-adv-x="692" d="M90 483v156h512v-156h-512z" />
<glyph unicode="." horiz-adv-x="588" d="M188 0v219h211v-219h-211z" />
<glyph unicode="/" horiz-adv-x="569" d="M-109 -190l582 1638h145l-583 -1638h-144z" />
<glyph unicode="0" horiz-adv-x="1176" d="M104 711q0 304 91 489q122 248 393 248q270 0 392 -249q91 -186 91 -488q0 -305 -90 -490q-121 -248 -393 -248q-236 0 -360 188.5t-124 549.5zM305 713q0 -584 285 -584q280 0 280 580q0 589 -282 589q-283 0 -283 -585z" />
<glyph unicode="1" horiz-adv-x="1176" d="M211 1135l360 286h164v-1421h-186v1208l-236 -202z" />
<glyph unicode="2" horiz-adv-x="1176" d="M121 0v166q286 283 388 404q261 308 261 479q0 107 -80 169q-74 56 -184 56q-78 0 -161 -26t-157 -77l-22 183q198 90 397 90q175 0 288 -104q116 -107 116 -281q0 -163 -133 -363q-135 -203 -476 -534h650v-162h-887z" />
<glyph unicode="3" horiz-adv-x="1176" d="M96 43l23 184q139 -75 301 -75q147 0 252 63q125 75 125 213q0 124 -110 185q-87 49 -222 49h-152v155h156q126 0 214 51q108 62 108 179q0 112 -102 175q-86 52 -206 52q-144 0 -309 -70l-10 168q196 60 358 60q192 0 319 -85q148 -99 148 -282q0 -125 -87 -212 q-77 -77 -206 -108q139 -23 221 -106q87 -88 87 -225q0 -213 -177 -328q-151 -98 -376 -98q-208 0 -355 55z" />
<glyph unicode="4" horiz-adv-x="1176" d="M55 319v183l621 919h239v-946h207v-156h-207v-319h-186v319h-674zM219 475h510l4 772z" />
<glyph unicode="5" horiz-adv-x="1176" d="M174 223q133 -76 307 -76q155 0 253 77q108 84 108 235q0 140 -105 217q-94 69 -239 69q-62 0 -139 -11q-86 -12 -169 -34l13 721h782v-151h-598l-8 -393l99 15q23 3 63 5h30q211 0 338 -110q135 -117 135 -324q0 -236 -169 -364q-152 -115 -396 -115q-156 0 -303 55z " />
<glyph unicode="6" horiz-adv-x="1176" d="M129 643q0 343 133 550q158 247 481 247q146 0 287 -45l-14 -166q-118 57 -250 57q-214 0 -330 -147q-118 -150 -118 -422q113 184 339 184q191 0 309.5 -123t118.5 -315q0 -210 -125 -347q-129 -141 -337 -141q-266 0 -392 211q-102 172 -102 457zM344 432 q0 -127 72 -213q77 -90 202 -90q126 0 202 91q71 85 71 214q0 137 -70 222q-75 92 -209 92q-127 0 -201 -97q-67 -88 -67 -219z" />
<glyph unicode="7" horiz-adv-x="1176" d="M115 1264v157h901v-174l-545 -1247h-219l561 1264h-698z" />
<glyph unicode="8" horiz-adv-x="1176" d="M98 371q0 273 328 368q-276 118 -276 359q0 173 146 268q125 80 308 80q173 0 292 -79q138 -91 138 -255q0 -238 -284 -367q327 -112 327 -374q0 -193 -156 -301q-138 -95 -339 -95q-196 0 -332 98q-152 109 -152 298zM293 383q0 -115 90 -187q83 -67 201 -67 q117 0 199 63q91 70 91 183q0 184 -307 299q-274 -103 -274 -291zM336 1085q0 -165 266 -282q242 129 242 295q0 95 -74 153q-68 52 -166 52q-109 0 -184 -53q-84 -61 -84 -165z" />
<glyph unicode="9" horiz-adv-x="1176" d="M117 958q0 209 126 347q130 143 337 143q266 0 392 -213q101 -172 101 -459q0 -342 -134 -548q-159 -244 -482 -244q-144 0 -285 45l14 166q62 -31 118 -44q61 -14 132 -14q322 0 418 326q31 105 31 241q-116 -184 -340 -184q-189 0 -308.5 124t-119.5 314zM311 973 q0 -127 71 -210q75 -87 200 -87q132 0 207 95q69 88 69 224q0 126 -70 210q-74 89 -198 89q-120 0 -199.5 -90.5t-79.5 -230.5z" />
<glyph unicode=":" horiz-adv-x="588" d="M188 0v219h211v-219h-211zM188 815v221h211v-221h-211z" />
<glyph unicode=";" horiz-adv-x="588" d="M90 -254l125 471h209l-168 -471h-166zM209 809v219h211v-219h-211z" />
<glyph unicode="&#x3c;" horiz-adv-x="1706" d="M264 547v129l1178 483v-153l-969 -396l969 -393v-154z" />
<glyph unicode="=" horiz-adv-x="1706" d="M254 342v139h1198v-139h-1198zM254 739v140h1198v-140h-1198z" />
<glyph unicode="&#x3e;" horiz-adv-x="1706" d="M264 63v154l971 393l-971 396v153l1178 -483v-129z" />
<glyph unicode="?" horiz-adv-x="1053" d="M137 1389q81 25 154 38t143 13q182 0 301 -83q135 -96 135 -270q0 -155 -215 -414l-39 -47q-79 -95 -79 -220v-25h-166l-2 20v31q0 134 100 266q23 31 68 84q145 172 145 281q0 107 -86 169q-77 54 -188 54q-93 0 -195 -34q-31 -11 -74 -31zM346 0v217h211v-217h-211z " />
<glyph unicode="@" horiz-adv-x="2048" d="M106 522q0 334 203 582q297 362 807 362q340 0 563 -172q265 -205 265 -514q0 -352 -248 -551q-66 -53 -148.5 -82.5t-167.5 -29.5q-200 0 -200 157v19q-107 -174 -301 -174q-314 0 -314 332q0 220 126 380q137 173 351 173q83 0 144.5 -37.5t97.5 -112.5l57 115h132 l-154 -635q-3 -42 26 -69q25 -25 74 -25q51 0 102 26q56 28 107 76q170 157 170 420q0 279 -211 438q-191 143 -479 143q-267 0 -457.5 -114.5t-295.5 -300t-105 -408.5q0 -344 254 -538q210 -160 524 -160q346 0 621 190l55 -82q-297 -223 -664 -223q-384 0 -628 187 q-306 234 -306 628zM725 446q0 -219 186 -219q102 0 181 75q72 69 98 173l59 236q-34 184 -198 184q-156 0 -248 -153q-78 -130 -78 -296z" />
<glyph unicode="A" horiz-adv-x="1352" d="M8 0l567 1421h242l557 -1421h-215l-137 365h-676l-137 -365h-201zM410 524h555l-273 723z" />
<glyph unicode="B" horiz-adv-x="1178" d="M176 0v1421h381q205 0 330 -75q153 -92 153 -283q0 -244 -262 -315q303 -74 303 -351q0 -209 -164 -312q-135 -85 -358 -85h-383zM373 162h151q350 0 350 252q0 245 -325 245h-176v-497zM373 813h145q133 0 216 48q102 59 102 183q0 222 -299 222h-164v-453z" />
<glyph unicode="C" horiz-adv-x="1249" d="M102 702q0 337 212 533q206 190 546 190q197 0 336 -55l-8 -172q-169 68 -320 68q-255 0 -406 -149t-151 -404q0 -257 150.5 -404t408.5 -147q166 0 314 61l6 -178q-151 -49 -336 -49q-340 0 -542 181q-210 189 -210 525z" />
<glyph unicode="D" horiz-adv-x="1405" d="M176 0v1421h332q801 0 801 -714q0 -357 -229 -540q-209 -167 -576 -167h-328zM375 166h162q265 0 414 143.5t149 407.5q0 545 -561 545h-164v-1096z" />
<glyph unicode="E" horiz-adv-x="1096" d="M176 0v1421h770v-153h-571v-451h540v-160h-540v-493h590v-164h-789z" />
<glyph unicode="F" horiz-adv-x="977" d="M176 0v1421h735v-155h-536v-455h514v-160h-514v-651h-199z" />
<glyph unicode="G" horiz-adv-x="1456" d="M109 709q0 337 215 531q207 187 548 187q200 0 392 -69l-29 -168q-164 82 -352 82q-256 0 -411 -155t-155 -412q0 -256 157 -406q154 -147 411 -147q124 0 225 41v432h-297v155h490v-712q-102 -37 -208 -56q-100 -18 -227 -18q-343 0 -547 184q-212 192 -212 531z" />
<glyph unicode="H" horiz-adv-x="1395" d="M176 0v1421h199v-602h645v602h199v-1421h-199v657h-645v-657h-199z" />
<glyph unicode="I" horiz-adv-x="551" d="M176 0v1421h199v-1421h-199z" />
<glyph unicode="J" horiz-adv-x="733" d="M10 8v176q66 -24 125 -24q136 0 187 120q34 80 34 240v901h201v-944q0 -489 -373 -489q-94 0 -174 20z" />
<glyph unicode="K" horiz-adv-x="1208" d="M176 0v1421h199v-624l588 624h239l-639 -663l692 -758h-256l-624 694v-694h-199z" />
<glyph unicode="L" horiz-adv-x="952" d="M176 0v1421h199v-1255h567v-166h-766z" />
<glyph unicode="M" horiz-adv-x="1874" d="M176 0v1421h301l420 -1102q21 -54 32 -133q3 -26 3 -48q13 133 33 184l436 1099h297v-1421h-193v1116q0 18 2 53.5t2 53.5q0 40 13 114q-22 -99 -60 -196l-450 -1141h-176l-471 1229l-25 104l12 -221v-1112h-176z" />
<glyph unicode="N" horiz-adv-x="1444" d="M176 0v1421h250l649 -1180q16 -37 39 -116l-20 140q-7 49 -7 108v1048h183v-1421h-244l-629 1116q-19 33 -29 67l-38 124l21 -176l7 -89v-1042h-182z" />
<glyph unicode="O" horiz-adv-x="1501" d="M104 711q0 323 158 521q173 216 488 216t487 -216q158 -198 158 -521q0 -343 -172.5 -540.5t-472.5 -197.5q-315 0 -488 216q-158 198 -158 522zM311 713q0 -234 100 -391q118 -185 339 -185q220 0 339 185q101 158 101 391q0 234 -101 391q-118 186 -339 186t-339 -186 q-100 -157 -100 -391z" />
<glyph unicode="P" horiz-adv-x="1085" d="M176 0v1421h354q508 0 508 -420q0 -216 -156 -326q-136 -95 -362 -95h-145v-580h-199zM375 735h129q327 0 327 271q0 130 -86 198q-79 62 -213 62h-157v-531z" />
<glyph unicode="Q" horiz-adv-x="1501" d="M104 711q0 323 158 521q173 216 488 216t487 -216q158 -198 158 -521q0 -498 -371 -682l315 -301h-243l-259 252l-46 -4l-33 -1h-25q-281 0 -456 195q-173 193 -173 541zM311 713q0 -234 100 -391q118 -185 339 -185q220 0 339 185q101 158 101 391q0 234 -101 391 q-118 186 -339 186t-339 -186q-100 -157 -100 -391z" />
<glyph unicode="R" horiz-adv-x="1169" d="M176 0v1421h383q488 0 488 -364q0 -278 -310 -346q73 -19 119 -75q31 -39 68 -126l215 -510h-213l-187 465q-36 90 -94.5 127t-157.5 37h-114v-629h-197zM373 784h153q134 0 218 55q100 65 100 191q0 238 -324 238h-147v-484z" />
<glyph unicode="S" horiz-adv-x="1075" d="M127 53l20 191q176 -90 330 -90q111 0 186 46q91 54 91 158q0 143 -299 313q-43 24 -76 44q-244 145 -244 356q0 183 150 279q127 82 321 82q157 0 303 -48l-20 -174q-96 47 -207 60q-33 4 -74 4q-108 0 -180 -36q-94 -47 -94 -144q0 -87 93 -161q39 -32 167 -102 q173 -95 249 -167q122 -116 122 -261q0 -191 -144 -306q-133 -107 -329 -107q-208 0 -365 63z" />
<glyph unicode="T" horiz-adv-x="1032" d="M18 1255v166h996v-166h-398v-1255h-200v1255h-398z" />
<glyph unicode="U" horiz-adv-x="1413" d="M164 578v843h198v-837q0 -447 336 -447q346 0 346 465v819h185v-823q0 -625 -537 -625q-528 0 -528 605z" />
<glyph unicode="V" horiz-adv-x="1294" d="M25 1421h211l417 -1231l432 1231h201l-524 -1421h-232z" />
<glyph unicode="W" horiz-adv-x="1937" d="M25 1421h204l291 -1198l15 -114q0 27 8 85l7 47q2 16 7 36l291 1144h258l315 -1312q0 29 11 98l10 63l293 1151h188l-383 -1421h-250l-299 1160q-7 28 -11 67l-9 93l-14 -119q-4 -37 -7 -42l-297 -1159h-254z" />
<glyph unicode="X" horiz-adv-x="1292" d="M14 0l514 743l-462 678h237l356 -559l353 559h219l-463 -676l508 -745h-238l-399 623l-403 -623h-222z" />
<glyph unicode="Y" horiz-adv-x="1180" d="M-33 1421h234l393 -673l401 673h217l-524 -833v-588h-201v584z" />
<glyph unicode="Z" horiz-adv-x="1100" d="M66 0v186l733 1076h-711v159h922v-176l-738 -1081h750v-164h-956z" />
<glyph unicode="[" horiz-adv-x="668" d="M188 -270v1814h361v-129h-199v-1558h199v-127h-361z" />
<glyph unicode="\" horiz-adv-x="569" d="M-49 1448h145l582 -1638h-146z" />
<glyph unicode="]" horiz-adv-x="668" d="M117 -143h200v1558h-200v129h362v-1814h-362v127z" />
<glyph unicode="^" horiz-adv-x="2048" d="M420 901l510 557h186l510 -557h-180l-422 420l-424 -420h-180z" />
<glyph unicode="_" d="M0 -340h1024v-143h-1024v143z" />
<glyph unicode="`" d="M258 1520h188l205 -355h-108z" />
<glyph unicode="a" horiz-adv-x="1081" d="M82 289q0 194 180 281q134 65 352 65h134v20q0 120 -67 187t-187 67q-137 0 -287 -86l-2 156q114 54 249 69q45 5 95 5q383 0 383 -428v-625h-170v172q-119 -186 -352 -186q-142 0 -233 80q-95 83 -95 223zM272 299q0 -79 53.5 -127.5t133.5 -48.5q135 0 213 88 q76 85 76 221v76h-121q-355 0 -355 -209z" />
<glyph unicode="b" horiz-adv-x="1221" d="M168 0v1530h190v-666q114 187 342 187q207 0 321 -162q101 -143 101 -359q0 -218 -100 -370q-115 -176 -322 -176q-236 0 -358 225v-209h-174zM358 520q0 -155 66 -259q77 -124 223 -124q142 0 215 123q60 102 60 254q0 154 -56 259q-72 132 -213 132q-151 0 -229 -122 q-66 -104 -66 -263z" />
<glyph unicode="c" horiz-adv-x="952" d="M92 512q0 239 150 382q147 142 387 142q75 0 133 -10q72 -13 123 -33l-15 -164q-99 54 -221 54q-162 0 -259 -102t-97 -265q0 -165 92 -266q94 -105 258 -105q84 0 176 32q28 10 60 26l10 -168q-126 -47 -275 -47q-237 0 -379.5 143.5t-142.5 380.5z" />
<glyph unicode="d" horiz-adv-x="1221" d="M96 530q0 217 101 360q115 163 323 163q223 0 340 -189v666h191v-1530h-174v209q-122 -225 -361 -225q-203 0 -319 178q-101 154 -101 368zM297 518q0 -153 59 -256q73 -125 215 -125q145 0 223 123q66 105 66 258q0 180 -78.5 283.5t-214.5 103.5q-140 0 -212 -130 q-58 -105 -58 -257z" />
<glyph unicode="e" horiz-adv-x="1053" d="M92 524q0 228 124 374q131 155 355 155q214 0 329 -150q104 -136 104 -356v-78h-728q0 -156 105 -257q95 -91 256 -91q146 0 285 76v-164q-137 -58 -326 -58q-243 0 -377 155q-127 147 -127 394zM281 596h544q0 141 -79 236q-69 83 -185 83q-126 0 -202 -100 q-65 -85 -78 -219z" />
<glyph unicode="f" horiz-adv-x="723" d="M47 883v145h215v162q0 358 328 358h36q30 -4 89 -16l-6 -154l-56 16l-43 5q-159 0 -159 -219v-152h239v-145h-239v-883h-189v883h-215z" />
<glyph unicode="g" horiz-adv-x="1212" d="M100 518q0 223 101 368q116 167 329 167q234 0 351 -209v184h174v-911q0 -566 -512 -566q-191 0 -344 64l14 172q164 -84 301 -84q175 0 269 104q89 100 89 277v123q-125 -207 -344 -207q-191 0 -309.5 141.5t-118.5 376.5zM301 528q0 -150 61 -251q73 -123 213 -123 q141 0 219 118q68 102 68 250q0 160 -63 260q-76 121 -226 121q-140 0 -213 -123q-59 -101 -59 -252z" />
<glyph unicode="h" horiz-adv-x="1202" d="M170 0v1530h190v-668q110 191 342 191q353 0 353 -432v-621h-191v578q0 311 -229 311q-142 0 -215 -117q-60 -97 -60 -248v-524h-190z" />
<glyph unicode="i" horiz-adv-x="512" d="M160 0v1028h192v-1028h-192zM160 1309v192h192v-192h-192z" />
<glyph unicode="j" horiz-adv-x="512" d="M-62 -409l10 122l38 -7l34 -3q93 0 123 90q17 50 17 168v1067h192v-1077q0 -186 -52 -277q-69 -118 -239 -118h-30l-49 7q-18 5 -44 28zM160 1309v192h192v-192h-192z" />
<glyph unicode="k" horiz-adv-x="1028" d="M170 0v1530h190v-909l406 407h223l-457 -438l515 -590h-240l-447 539v-539h-190z" />
<glyph unicode="l" horiz-adv-x="512" d="M160 0v1530h192v-1530h-192z" />
<glyph unicode="m" horiz-adv-x="1810" d="M170 0v1028h174v-190q111 213 340 213q221 0 303 -224q116 224 348 224q330 0 330 -430v-621h-190v578q0 305 -199 305q-138 0 -207 -116q-57 -95 -57 -243v-524h-191v578q0 139 -35 209q-48 96 -172 96q-131 0 -200 -120q-56 -98 -56 -239v-524h-188z" />
<glyph unicode="n" horiz-adv-x="1202" d="M170 0v1028h174v-190q115 215 358 215q353 0 353 -432v-621h-191v578q0 311 -229 311q-142 0 -215 -117q-60 -97 -60 -248v-524h-190z" />
<glyph unicode="o" horiz-adv-x="1202" d="M92 514q0 244 131 389q136 150 377 150q242 0 379 -150q131 -144 131 -389q0 -243 -132 -388q-138 -151 -378 -151q-235 0 -371.5 144.5t-136.5 394.5zM295 516q0 -159 72 -266q84 -123 235 -123q153 0 235 123q72 106 72 266t-72 267q-83 124 -235 124q-150 0 -234 -125 q-73 -108 -73 -266z" />
<glyph unicode="p" horiz-adv-x="1221" d="M170 -428v1456h172v-199q126 224 363 224q207 0 321 -161q102 -142 102 -357q0 -228 -99 -378q-116 -173 -333 -173q-220 0 -336 182v-594h-190zM360 520q0 -157 63 -261q75 -126 222 -126q146 0 221 128q62 105 62 261t-58 255q-72 122 -217 122q-147 0 -226 -121 q-67 -103 -67 -258z" />
<glyph unicode="q" horiz-adv-x="1221" d="M92 539q0 214 104 356q116 158 322 158q233 0 359 -224v199h174v-1456h-191v594q-118 -182 -340 -182q-215 0 -330 177q-98 151 -98 378zM293 524q0 -159 60 -263q74 -128 222 -128q145 0 221 126q62 104 62 259q0 161 -68 263q-80 118 -233 118q-134 0 -205 -127 q-59 -104 -59 -248z" />
<glyph unicode="r" horiz-adv-x="739" d="M170 0v1028h172v-211q86 230 297 230h16q4 0 21 -2l43 -5l-6 -182l-42 9l-38 3q-11 1 -22 1q-108 0 -180 -93q-71 -92 -71 -262v-516h-190z" />
<glyph unicode="s" horiz-adv-x="860" d="M96 39l6 160q69 -35 139 -53q67 -17 134 -17q82 0 138 33q67 40 67 117q0 65 -65 116q-31 23 -122 68q-133 65 -190 115q-92 82 -92 192q0 137 124 210q103 60 250 60q92 0 192 -21q28 -6 64 -18l-8 -155q-127 59 -260 59q-67 0 -113 -25q-59 -31 -59 -92q0 -60 74 -112 q32 -23 125 -66q136 -63 195 -117q89 -83 89 -200q0 -157 -136 -238q-112 -67 -281 -67q-105 0 -206 29q-30 8 -65 22z" />
<glyph unicode="t" horiz-adv-x="750" d="M45 883v145h213v254l184 64v-318h246v-145h-246v-533q0 -104 24 -152q34 -69 126 -69q17 0 29 2l17 3l58 18l2 -150q-34 -9 -80 -15q-36 -5 -75 -5q-166 0 -234 95q-57 80 -57 255v551h-207z" />
<glyph unicode="u" horiz-adv-x="1202" d="M147 416v612h191v-569q0 -309 227 -309q275 0 275 403v475h190v-1028h-174v199q-111 -213 -356 -213q-353 0 -353 430z" />
<glyph unicode="v" horiz-adv-x="977" d="M29 1028h204l269 -858l280 858h187l-365 -1028h-221z" />
<glyph unicode="w" horiz-adv-x="1661" d="M33 1028h205l224 -832l13 -83q4 32 14 96q2 15 7 33l231 786h236l238 -825l13 -90l4 37q1 19 9 67q2 12 8 27l229 784h187l-336 -1028h-217l-252 860l-8 77l-3 -33q-3 -11 -8 -40q-3 -20 -10 -53l-242 -811h-217z" />
<glyph unicode="x" horiz-adv-x="946" d="M14 0l361 543l-326 485h230l219 -366l225 366h211l-328 -479l355 -549h-226l-252 420l-256 -420h-213z" />
<glyph unicode="y" horiz-adv-x="975" d="M25 1028h204l279 -844l276 844h193l-408 -1132q-59 -165 -125 -239q-92 -103 -239 -103h-29q-32 3 -96 15l16 157l47 -10l43 -3h8q60 0 113 56q52 57 105 192z" />
<glyph unicode="z" horiz-adv-x="961" d="M76 0v164l579 715h-555v149h772v-160l-587 -718h587v-150h-796z" />
<glyph unicode="{" d="M168 457v149l45 -2q123 -6 183 60q55 60 55 208v246q0 118 11 170q21 95 89 137q42 26 108 39q63 13 170 13h37v-150h-41q-125 0 -166 -53q-36 -45 -36 -176v-242q0 -143 -34 -208q-43 -83 -167 -118q124 -30 167 -116q34 -66 34 -209v-242q0 -132 36 -177 q41 -52 168 -52h39v-148h-43q-191 0 -272 49q-56 34 -78 96.5t-22 211.5v245q0 149 -55 210q-60 67 -185 61z" />
<glyph unicode="|" d="M438 -483v2048h150v-2048h-150z" />
<glyph unicode="}" d="M160 -266h39q126 0 168 53q36 46 36 178v240q0 143 34 208q43 84 167 117q-123 33 -167 118q-34 66 -34 208v242q0 131 -37 177q-42 52 -167 52h-39v150h37q105 0 171 -13q144 -29 184 -135q23 -64 23 -211v-246q0 -146 54 -207q59 -67 184 -61l45 2v-149l-43 2 q-127 6 -186 -60q-54 -61 -54 -211v-245q0 -120 -11 -170q-21 -96 -89 -138q-81 -49 -272 -49h-43v148z" />
<glyph unicode="~" horiz-adv-x="1706" d="M178 451v155q212 144 387 144q58 0 128 -14t163 -48l47 -17q158 -57 240 -57q168 0 387 156v-156q-153 -106 -293 -132q-49 -9 -96 -9q-92 0 -256 58l-49 17q-180 60 -273 60q-84 0 -175 -37t-210 -120z" />
<glyph unicode="&#xa1;" horiz-adv-x="821" d="M301 0l35 1036h147l35 -1036h-217zM301 1206v215h217v-215h-217z" />
<glyph unicode="&#xa2;" horiz-adv-x="1176" d="M184 530q0 246 152 390q162 153 412 143l49 -2l80 252h96l-86 -268q20 -5 60 -17l32 -11l-16 -167l-55 24l-68 21l-226 -713q36 -11 62 -17l49 -5q130 0 246 57l8 -170q-114 -47 -256 -47h-12q-41 0 -76 4q-28 1 -43 5l-31 7l-88 -280h-96l100 311q-293 133 -293 483z M385 530q0 -200 145 -307l218 680h-5q-164 0 -261 -103.5t-97 -269.5z" />
<glyph unicode="&#xa3;" horiz-adv-x="1176" d="M170 0v160h205v542h-178v125l178 1q0 17 -2 27v46q0 547 477 547q80 0 166 -21q30 -8 63 -20l-18 -164q-98 51 -193 51q-305 0 -305 -438v-29h330v-125h-330v-542h486v-160h-879z" />
<glyph unicode="&#xa4;" horiz-adv-x="1241" d="M80 428l207 205q-84 107 -84 252q0 139 84 252l-207 206l82 80l205 -204q117 86 254 86q136 0 256 -86l204 204l82 -80l-205 -206q82 -109 82 -252q0 -147 -82 -252l205 -205l-82 -82l-204 205q-117 -86 -254 -86q-146 0 -256 86l-205 -205zM319 887q0 -127 88.5 -216 t215.5 -89q126 0 214.5 89.5t88.5 215.5t-88.5 214.5t-214.5 88.5t-215 -88.5t-89 -214.5z" />
<glyph unicode="&#xa5;" horiz-adv-x="1178" d="M-31 1421h221l400 -688l407 688h203l-323 -512h227v-100h-289l-125 -199h414v-100h-426v-510h-186v510h-429v100h414l-127 199h-287v100h226z" />
<glyph unicode="&#xa6;" d="M438 -350v758h150v-758h-150zM438 674v758h150v-758h-150z" />
<glyph unicode="&#xa7;" d="M111 643q0 186 190 291q-119 87 -119 225q0 142 117 221q101 68 250 68q138 0 305 -57l-29 -146q-135 62 -254 62q-82 0 -137 -35q-65 -41 -65 -119q0 -97 228 -219l15 -8q206 -110 277 -194q65 -78 65 -181q0 -175 -184 -283q82 -73 104 -161q7 -28 7 -62 q0 -160 -131 -240q-108 -67 -279 -67q-64 0 -148.5 17t-170.5 48l28 148q148 -68 303 -68q83 0 142 38q69 45 69 124q0 94 -187 199l-32 18q-227 128 -300 213q-64 75 -64 168zM274 682q0 -98 157 -208q50 -35 237 -136q114 84 114 182q0 141 -351 329l-28 15 q-129 -65 -129 -182z" />
<glyph unicode="&#xa8;" d="M260 1235v190h170v-190h-170zM592 1235v190h172v-190h-172z" />
<glyph unicode="&#xa9;" horiz-adv-x="1706" d="M117 727q0 305 219 524q213 213 516 213q308 0 523.5 -214t215.5 -523q0 -308 -213 -516q-227 -221 -526 -221t-516 218q-109 108 -164 239t-55 280zM213 727q0 -262 189.5 -450.5t451.5 -188.5q260 0 455 191q184 180 184 448q0 270 -185 454q-190 187 -454 187 q-267 0 -450 -185q-191 -193 -191 -456zM463 733q0 191 100 314q108 131 295 131q133 0 227 -69q102 -74 115 -202h-147q-25 160 -205 160q-121 0 -180 -116q-45 -90 -45 -224q0 -136 49 -223q61 -109 186 -109q173 0 205 176h145q0 -122 -108 -211q-98 -81 -248 -81 q-193 0 -296 134q-93 120 -93 320z" />
<glyph unicode="&#xaa;" horiz-adv-x="811" d="M61 905q0 242 400 242h100v14q0 178 -190 178q-101 0 -215 -61l-2 111q59 25 122 38t136 13q286 0 286 -299v-439h-127v121q-88 -131 -264 -131q-103 0 -171 54q-75 59 -75 159zM205 911q0 -55 43 -90q39 -33 96 -33q99 0 158 59.5t59 158.5v53h-90q-266 0 -266 -148z " />
<glyph unicode="&#xab;" horiz-adv-x="1012" d="M76 532l268 418h168l-258 -418l258 -417h-168zM506 532l268 418h168l-258 -418l258 -417h-170z" />
<glyph unicode="&#xac;" horiz-adv-x="1706" d="M254 721v139h1198v-502h-137v363h-1061z" />
<glyph unicode="&#xad;" horiz-adv-x="692" d="M90 483v156h512v-156h-512z" />
<glyph unicode="&#xae;" horiz-adv-x="1706" d="M117 727q0 220 126 410.5t329 273.5q131 53 280 53q151 0 286 -56q169 -70 286 -214t153 -323q14 -70 14 -144q0 -312 -216 -520q-225 -217 -523 -217q-300 0 -520 221q-215 216 -215 516zM213 727q0 -259 188.5 -449t446.5 -190q193 0 358 107t239 283q48 114 48 243 q0 274 -182 459q-187 188 -457 188q-268 0 -446 -182q-195 -199 -195 -459zM557 324v835h315q349 0 349 -229q0 -184 -191 -225l187 -381h-177l-170 356h-155v-356h-158zM715 780h133q211 0 211 133q0 76 -51 110t-164 34h-129v-277z" />
<glyph unicode="&#xaf;" d="M242 1266v129h538v-129h-538z" />
<glyph unicode="&#xb0;" horiz-adv-x="674" d="M49 1167q0 121 84 205t205 84q119 0 203 -85t84 -204t-85 -202.5t-204 -83.5q-121 0 -204 82.5t-83 203.5zM143 1169q0 -81 57 -138.5t138 -57.5t136.5 57.5t55.5 138.5q0 82 -55 137.5t-137 55.5t-138.5 -55.5t-56.5 -137.5z" />
<glyph unicode="&#xb1;" horiz-adv-x="1706" d="M254 29v141h1198v-141h-1198zM254 713v139h528v340h142v-340h528v-139h-528v-340h-142v340h-528z" />
<glyph unicode="&#xb2;" horiz-adv-x="776" d="M80 569v101q188 169 254 238q174 186 174 290q0 66 -56 103q-49 32 -118 32q-105 0 -209 -61l-16 110q131 54 264 54q111 0 185 -59q81 -65 81 -173q0 -122 -154 -297q-71 -82 -247 -241h428v-97h-586z" />
<glyph unicode="&#xb3;" horiz-adv-x="776" d="M63 596l15 111q90 -48 198 -48q93 0 163 36q87 45 87 130q0 77 -76 114q-58 28 -143 28h-100v92h102q80 0 138 29q75 38 75 110q0 68 -71 105q-57 30 -132 30q-79 0 -151 -21q-25 -8 -53 -20l-6 101q138 34 235 34q120 0 205 -49q104 -59 104 -170q0 -154 -194 -192 q203 -31 203 -199q0 -131 -123 -200q-100 -56 -242 -56q-131 0 -234 35z" />
<glyph unicode="&#xb4;" d="M373 1165l205 355h188l-285 -355h-108z" />
<glyph unicode="&#xb5;" horiz-adv-x="1151" d="M-113 -428l318 1499h180l-140 -665l-3 -68q-4 -96 52 -153q51 -54 148 -54q153 0 237 132q55 88 95 272l115 536h178l-160 -752q-18 -90 -18 -112q0 -36 16.5 -52t55.5 -16h18l14 2l-30 -143l-51 -7l-58 -3q-60 -3 -97 29q-33 28 -52 100q-66 -98 -184 -123 q-39 -8 -87 -8q-157 0 -256 116l-110 -530h-181z" />
<glyph unicode="&#xb6;" d="M66 1130q0 165 116 260q108 89 277 89h499v-86h-120v-1393h-111v1393h-176v-1393h-113v782q-162 0 -271 102q-101 94 -101 246z" />
<glyph unicode="&#xb7;" horiz-adv-x="588" d="M180 711q0 48 32.5 81t80.5 33t81.5 -33t33.5 -81t-33.5 -80.5t-81.5 -32.5q-46 0 -79.5 32.5t-33.5 80.5z" />
<glyph unicode="&#xb8;" d="M248 -330l148 -29q51 -10 89 -10q125 0 125 86q0 49 -33 71t-106 22h-27l-18 -1l-2 191h80v-102h18q221 0 221 -179q0 -184 -239 -184q-114 0 -256 41v94z" />
<glyph unicode="&#xb9;" horiz-adv-x="776" d="M139 1249l238 172h108v-852h-123v725l-155 -120z" />
<glyph unicode="&#xba;" horiz-adv-x="901" d="M70 1063q0 175 102.5 276t278.5 101q177 0 280 -100t103 -277q0 -176 -103.5 -276.5t-279.5 -100.5t-278.5 100.5t-102.5 276.5zM221 1063q0 -113 58 -189q64 -83 174 -83t173 83q56 75 56 189q0 115 -56 190q-62 84 -173 84t-174 -84q-58 -76 -58 -190z" />
<glyph unicode="&#xbb;" horiz-adv-x="1012" d="M70 115l258 417l-258 418h170l266 -418l-268 -417h-168zM500 115l258 417l-258 418h170l266 -418l-268 -417h-168z" />
<glyph unicode="&#xbc;" horiz-adv-x="1823" d="M133 1262l227 161h103v-796h-117v676l-149 -113zM465 -27l756 1475h137l-754 -1475h-139zM1118 178v103l391 516h152v-531h129v-88h-129v-178h-119v178h-424zM1221 266h321l4 432z" />
<glyph unicode="&#xbd;" horiz-adv-x="1823" d="M133 1262l227 161h103v-796h-117v676l-149 -113zM465 -27l756 1475h137l-754 -1475h-139zM1159 0v92q181 159 243 223q167 175 167 273q0 61 -55 96q-46 29 -111 29q-109 0 -201 -58l-14 103q123 51 250 51q105 0 176 -54q78 -59 78 -161q0 -116 -146 -280 q-70 -78 -237 -224h409v-90h-559z" />
<glyph unicode="&#xbe;" horiz-adv-x="1823" d="M61 651l15 103q48 -23 90.5 -33t97.5 -10q89 0 154 33q84 42 84 122q0 131 -209 131h-96v86h98q75 0 131 27q72 35 72 102q0 65 -68 99q-54 28 -125 28t-144 -21q-22 -7 -50 -18l-9 95q95 24 170 30q25 2 58 2q114 0 194 -44q99 -55 99 -160q0 -141 -185 -179 q195 -31 195 -186q0 -122 -119 -186q-96 -51 -229 -51q-137 0 -224 30zM465 -27l756 1475h137l-754 -1475h-139zM1118 178v103l391 516h152v-531h129v-88h-129v-178h-119v178h-424zM1221 266h321l4 432z" />
<glyph unicode="&#xbf;" horiz-adv-x="1053" d="M166 336q0 153 215 412l39 47q80 96 80 221v24h166l1 -21l1 -30q4 -130 -101 -266q-21 -27 -68 -83q-145 -172 -145 -282q0 -105 87 -167q77 -54 186 -54q121 0 268 64l4 -166q-159 -53 -297 -53q-182 0 -301 84q-135 95 -135 270zM479 1206v215h211v-215h-211z" />
<glyph unicode="&#xc0;" horiz-adv-x="1352" d="M8 0l567 1421h242l557 -1421h-215l-137 365h-676l-137 -365h-201zM410 524h555l-273 723zM451 1915h188l205 -355h-108z" />
<glyph unicode="&#xc1;" horiz-adv-x="1352" d="M8 0l567 1421h242l557 -1421h-215l-137 365h-676l-137 -365h-201zM410 524h555l-273 723zM566 1560l205 355h188l-285 -355h-108z" />
<glyph unicode="&#xc2;" horiz-adv-x="1352" d="M8 0l567 1421h242l557 -1421h-215l-137 365h-676l-137 -365h-201zM410 524h555l-273 723zM416 1560l199 355h180l199 -355h-109l-180 244l-180 -244h-109z" />
<glyph unicode="&#xc3;" horiz-adv-x="1352" d="M8 0l567 1421h242l557 -1421h-215l-137 365h-676l-137 -365h-201zM404 1614q23 97 73.5 147.5t125.5 50.5q25 0 35 -2l30 -6l125 -39l27 -2q29 -2 56 18q23 17 38 56h90q-50 -199 -197 -199h-21q-7 2 -11 2l-35 8l-97 29l-33 8l-22 2q-62 0 -92 -73h-92zM410 524h555 l-273 723z" />
<glyph unicode="&#xc4;" horiz-adv-x="1352" d="M8 0l567 1421h242l557 -1421h-215l-137 365h-676l-137 -365h-201zM410 524h555l-273 723zM453 1630v190h170v-190h-170zM785 1630v190h172v-190h-172z" />
<glyph unicode="&#xc5;" horiz-adv-x="1352" d="M8 0l567 1421h242l557 -1421h-215l-137 365h-676l-137 -365h-201zM410 524h555l-273 723zM442 1739q0 104 72 176t176 72q105 0 177.5 -71.5t72.5 -176.5q0 -106 -72 -178t-178 -72q-105 0 -176.5 72.5t-71.5 177.5zM551 1737q0 -60 41 -100t100 -40q60 0 99.5 40.5 t39.5 99.5q0 60 -39.5 100.5t-99.5 40.5t-100.5 -40.5t-40.5 -100.5z" />
<glyph unicode="&#xc6;" horiz-adv-x="1845" d="M-45 0l848 1421h893v-157h-566v-447h535v-160h-535v-493h584v-164h-778v367h-557l-211 -367h-213zM467 526h469v746h-33z" />
<glyph unicode="&#xc7;" horiz-adv-x="1249" d="M102 702q0 337 212 533q206 190 546 190q197 0 336 -55l-8 -172q-169 68 -320 68q-255 0 -406 -149t-151 -404q0 -257 150.5 -404t408.5 -147q166 0 314 61l6 -178q-151 -49 -336 -49q-340 0 -542 181q-210 189 -210 525zM520 -330l148 -29q51 -10 89 -10q125 0 125 86 q0 49 -33 71t-106 22h-27l-18 -1l-2 191h80v-102h18q221 0 221 -179q0 -184 -239 -184q-114 0 -256 41v94z" />
<glyph unicode="&#xc8;" horiz-adv-x="1096" d="M176 0v1421h770v-153h-571v-451h540v-160h-540v-493h590v-164h-789zM295 1915h188l205 -355h-108z" />
<glyph unicode="&#xc9;" horiz-adv-x="1096" d="M176 0v1421h770v-153h-571v-451h540v-160h-540v-493h590v-164h-789zM410 1560l205 355h188l-285 -355h-108z" />
<glyph unicode="&#xca;" horiz-adv-x="1096" d="M176 0v1421h770v-153h-571v-451h540v-160h-540v-493h590v-164h-789zM260 1560l199 355h180l199 -355h-109l-180 244l-180 -244h-109z" />
<glyph unicode="&#xcb;" horiz-adv-x="1096" d="M176 0v1421h770v-153h-571v-451h540v-160h-540v-493h590v-164h-789zM297 1630v190h170v-190h-170zM629 1630v190h172v-190h-172z" />
<glyph unicode="&#xcc;" horiz-adv-x="551" d="M22 1915h188l205 -355h-108zM176 0v1421h199v-1421h-199z" />
<glyph unicode="&#xcd;" horiz-adv-x="551" d="M137 1560l205 355h188l-285 -355h-108zM176 0v1421h199v-1421h-199z" />
<glyph unicode="&#xce;" horiz-adv-x="551" d="M-13 1560l199 355h180l199 -355h-109l-180 244l-180 -244h-109zM176 0v1421h199v-1421h-199z" />
<glyph unicode="&#xcf;" horiz-adv-x="551" d="M24 1630v190h170v-190h-170zM176 0v1421h199v-1421h-199zM356 1630v190h172v-190h-172z" />
<glyph unicode="&#xd0;" horiz-adv-x="1456" d="M109 709q0 337 215 531q207 187 548 187q200 0 392 -69l-29 -168q-164 82 -352 82q-256 0 -411 -155t-155 -412q0 -256 157 -406q154 -147 411 -147q124 0 225 41v432h-297v155h490v-712q-102 -37 -208 -56q-100 -18 -227 -18q-343 0 -547 184q-212 192 -212 531z M444 1873l92 1q0 -71 53 -111q47 -35 140 -35q136 0 177 82q13 27 13 63l95 1q0 -132 -80 -209q-69 -66 -205 -66t-206 66q-79 75 -79 208z" />
<glyph unicode="&#xd1;" horiz-adv-x="1444" d="M176 0v1421h250l649 -1180q16 -37 39 -116l-20 140q-7 49 -7 108v1048h183v-1421h-244l-629 1116q-19 33 -29 67l-38 124l21 -176l7 -89v-1042h-182zM422 1614q23 97 73.5 147.5t125.5 50.5q25 0 35 -2l30 -6l125 -39l27 -2q29 -2 56 18q23 17 38 56h90 q-50 -199 -197 -199h-21q-7 2 -11 2l-35 8l-97 29l-33 8l-22 2q-62 0 -92 -73h-92z" />
<glyph unicode="&#xd2;" horiz-adv-x="1501" d="M104 711q0 323 158 521q173 216 488 216t487 -216q158 -198 158 -521q0 -343 -172.5 -540.5t-472.5 -197.5q-315 0 -488 216q-158 198 -158 522zM311 713q0 -234 100 -391q118 -185 339 -185q220 0 339 185q101 158 101 391q0 234 -101 391q-118 186 -339 186t-339 -186 q-100 -157 -100 -391zM498 1915h188l205 -355h-108z" />
<glyph unicode="&#xd3;" horiz-adv-x="1501" d="M104 711q0 323 158 521q173 216 488 216t487 -216q158 -198 158 -521q0 -343 -172.5 -540.5t-472.5 -197.5q-315 0 -488 216q-158 198 -158 522zM311 713q0 -234 100 -391q118 -185 339 -185q220 0 339 185q101 158 101 391q0 234 -101 391q-118 186 -339 186t-339 -186 q-100 -157 -100 -391zM613 1560l205 355h188l-285 -355h-108z" />
<glyph unicode="&#xd4;" horiz-adv-x="1501" d="M104 711q0 323 158 521q173 216 488 216t487 -216q158 -198 158 -521q0 -343 -172.5 -540.5t-472.5 -197.5q-315 0 -488 216q-158 198 -158 522zM311 713q0 -234 100 -391q118 -185 339 -185q220 0 339 185q101 158 101 391q0 234 -101 391q-118 186 -339 186t-339 -186 q-100 -157 -100 -391zM463 1560l199 355h180l199 -355h-109l-180 244l-180 -244h-109z" />
<glyph unicode="&#xd5;" horiz-adv-x="1501" d="M104 711q0 323 158 521q173 216 488 216t487 -216q158 -198 158 -521q0 -343 -172.5 -540.5t-472.5 -197.5q-315 0 -488 216q-158 198 -158 522zM311 713q0 -234 100 -391q118 -185 339 -185q220 0 339 185q101 158 101 391q0 234 -101 391q-118 186 -339 186t-339 -186 q-100 -157 -100 -391zM451 1614q23 97 73.5 147.5t125.5 50.5q25 0 35 -2l30 -6l125 -39l27 -2q29 -2 56 18q23 17 38 56h90q-50 -199 -197 -199h-21q-7 2 -11 2l-35 8l-97 29l-33 8l-22 2q-62 0 -92 -73h-92z" />
<glyph unicode="&#xd6;" horiz-adv-x="1501" d="M104 711q0 323 158 521q173 216 488 216t487 -216q158 -198 158 -521q0 -343 -172.5 -540.5t-472.5 -197.5q-315 0 -488 216q-158 198 -158 522zM311 713q0 -234 100 -391q118 -185 339 -185q220 0 339 185q101 158 101 391q0 234 -101 391q-118 186 -339 186t-339 -186 q-100 -157 -100 -391zM500 1630v190h170v-190h-170zM832 1630v190h172v-190h-172z" />
<glyph unicode="&#xd7;" horiz-adv-x="1706" d="M293 141l469 469l-469 469l98 99l469 -469l469 469l98 -99l-469 -469l469 -469l-98 -96l-469 467l-469 -467z" />
<glyph unicode="&#xd8;" horiz-adv-x="1501" d="M51 18l182 213q-129 201 -129 494q0 312 161 509q174 214 478 214q261 0 435 -156l174 199l96 -88l-182 -209q129 -197 129 -498q0 -311 -160 -509q-173 -214 -477 -214q-272 0 -432 156l-179 -199zM305 733q0 -106 17 -189q18 -86 51 -161l684 774q-116 135 -309 135 q-217 0 -338 -177q-105 -154 -105 -382zM449 268q107 -133 305 -133q216 0 337 178q105 155 105 381q0 214 -68 346z" />
<glyph unicode="&#xd9;" horiz-adv-x="1413" d="M164 578v843h198v-837q0 -447 336 -447q346 0 346 465v819h185v-823q0 -625 -537 -625q-528 0 -528 605zM453 1915h188l205 -355h-108z" />
<glyph unicode="&#xda;" horiz-adv-x="1413" d="M164 578v843h198v-837q0 -447 336 -447q346 0 346 465v819h185v-823q0 -625 -537 -625q-528 0 -528 605zM568 1560l205 355h188l-285 -355h-108z" />
<glyph unicode="&#xdb;" horiz-adv-x="1413" d="M164 578v843h198v-837q0 -447 336 -447q346 0 346 465v819h185v-823q0 -625 -537 -625q-528 0 -528 605zM418 1560l199 355h180l199 -355h-109l-180 244l-180 -244h-109z" />
<glyph unicode="&#xdc;" horiz-adv-x="1413" d="M164 578v843h198v-837q0 -447 336 -447q346 0 346 465v819h185v-823q0 -625 -537 -625q-528 0 -528 605zM455 1630v190h170v-190h-170zM787 1630v190h172v-190h-172z" />
<glyph unicode="&#xdd;" horiz-adv-x="551" d="M176 0v1421h199v-1421h-199zM186 1624v203h180v-203h-180z" />
<glyph unicode="&#xde;" horiz-adv-x="1075" d="M127 53l20 191q176 -90 330 -90q111 0 186 46q91 54 91 158q0 143 -299 313q-43 24 -76 44q-244 145 -244 356q0 183 150 279q127 82 321 82q157 0 303 -48l-20 -174q-96 47 -207 60q-33 4 -74 4q-108 0 -180 -36q-94 -47 -94 -144q0 -87 93 -161q39 -32 167 -102 q173 -95 249 -167q122 -116 122 -261q0 -191 -144 -306q-133 -107 -329 -107q-208 0 -365 63zM275 -330l148 -29q51 -10 89 -10q125 0 125 86q0 49 -33 71t-106 22h-27l-18 -1l-2 191h80v-102h18q221 0 221 -179q0 -184 -239 -184q-114 0 -256 41v94z" />
<glyph unicode="&#xdf;" horiz-adv-x="1204" d="M160 0v1024q0 524 446 524q189 0 304 -100q122 -105 122 -291q0 -272 -270 -336q344 -49 344 -383q0 -200 -121.5 -327t-320.5 -127q-57 0 -137 11q-25 4 -56 11l4 164q52 -24 109 -31q17 -2 39 -2q132 0 209 88q73 83 73 217q0 281 -340 281h-33v158h7q135 0 217 71 q88 74 88 207q0 111 -65.5 177.5t-176.5 66.5q-158 0 -215 -148q-37 -94 -37 -284v-971h-190z" />
<glyph unicode="&#xe0;" horiz-adv-x="1081" d="M82 289q0 194 180 281q134 65 352 65h134v20q0 120 -67 187t-187 67q-137 0 -287 -86l-2 156q114 54 249 69q45 5 95 5q383 0 383 -428v-625h-170v172q-119 -186 -352 -186q-142 0 -233 80q-95 83 -95 223zM272 299q0 -79 53.5 -127.5t133.5 -48.5q135 0 213 88 q76 85 76 221v76h-121q-355 0 -355 -209zM287 1520h188l205 -355h-108z" />
<glyph unicode="&#xe1;" horiz-adv-x="1081" d="M82 289q0 194 180 281q134 65 352 65h134v20q0 120 -67 187t-187 67q-137 0 -287 -86l-2 156q114 54 249 69q45 5 95 5q383 0 383 -428v-625h-170v172q-119 -186 -352 -186q-142 0 -233 80q-95 83 -95 223zM272 299q0 -79 53.5 -127.5t133.5 -48.5q135 0 213 88 q76 85 76 221v76h-121q-355 0 -355 -209zM402 1165l205 355h188l-285 -355h-108z" />
<glyph unicode="&#xe2;" horiz-adv-x="1081" d="M82 289q0 194 180 281q134 65 352 65h134v20q0 120 -67 187t-187 67q-137 0 -287 -86l-2 156q114 54 249 69q45 5 95 5q383 0 383 -428v-625h-170v172q-119 -186 -352 -186q-142 0 -233 80q-95 83 -95 223zM252 1165l199 355h180l199 -355h-109l-180 244l-180 -244h-109z M272 299q0 -79 53.5 -127.5t133.5 -48.5q135 0 213 88q76 85 76 221v76h-121q-355 0 -355 -209z" />
<glyph unicode="&#xe3;" horiz-adv-x="1081" d="M82 289q0 194 180 281q134 65 352 65h134v20q0 120 -67 187t-187 67q-137 0 -287 -86l-2 156q114 54 249 69q45 5 95 5q383 0 383 -428v-625h-170v172q-119 -186 -352 -186q-142 0 -233 80q-95 83 -95 223zM240 1219q23 97 73.5 147.5t125.5 50.5q25 0 35 -2l30 -6 l125 -39l27 -2q29 -2 56 18q23 17 38 56h90q-50 -199 -197 -199h-21q-7 2 -11 2l-35 8l-97 29l-33 8l-22 2q-62 0 -92 -73h-92zM272 299q0 -79 53.5 -127.5t133.5 -48.5q135 0 213 88q76 85 76 221v76h-121q-355 0 -355 -209z" />
<glyph unicode="&#xe4;" horiz-adv-x="1081" d="M82 289q0 194 180 281q134 65 352 65h134v20q0 120 -67 187t-187 67q-137 0 -287 -86l-2 156q114 54 249 69q45 5 95 5q383 0 383 -428v-625h-170v172q-119 -186 -352 -186q-142 0 -233 80q-95 83 -95 223zM272 299q0 -79 53.5 -127.5t133.5 -48.5q135 0 213 88 q76 85 76 221v76h-121q-355 0 -355 -209zM289 1235v190h170v-190h-170zM621 1235v190h172v-190h-172z" />
<glyph unicode="&#xe5;" horiz-adv-x="1081" d="M82 289q0 194 180 281q134 65 352 65h134v20q0 120 -67 187t-187 67q-137 0 -287 -86l-2 156q114 54 249 69q45 5 95 5q383 0 383 -428v-625h-170v172q-119 -186 -352 -186q-142 0 -233 80q-95 83 -95 223zM272 299q0 -78 54 -127t133 -49q135 0 213 88q76 85 76 221v76 h-130q-346 0 -346 -209zM291 1368q0 106 72 178t178 72q105 0 176 -72.5t71 -177.5q0 -104 -71.5 -176t-175.5 -72q-106 0 -178 71t-72 177zM399 1368q0 -59 41.5 -99t100.5 -40q58 0 98.5 39.5t40.5 97.5q0 61 -39 102t-100 41q-59 0 -100.5 -41t-41.5 -100z" />
<glyph unicode="&#xe6;" horiz-adv-x="1706" d="M82 289q0 346 532 346h134v20q0 120 -67 187t-187 67q-137 0 -287 -86l-2 156q161 74 323 74q239 0 338 -166q131 166 359 166q213 0 328 -151q104 -136 104 -355v-55h-727q0 -169 102 -274q94 -97 258 -97q146 0 283 76v-164q-141 -58 -316 -58q-303 0 -432 240 q-143 -231 -401 -231q-149 0 -242 77q-100 83 -100 228zM272 299q0 -78 54 -127t133 -49q135 0 213 88q76 85 76 221v76h-130q-346 0 -346 -209zM932 627h547q0 128 -81 218q-69 77 -186 77q-121 0 -198 -89q-70 -81 -82 -206z" />
<glyph unicode="&#xe7;" horiz-adv-x="952" d="M92 512q0 239 150 382q147 142 387 142q75 0 133 -10q72 -13 123 -33l-15 -164q-99 54 -221 54q-162 0 -259 -102t-97 -265q0 -165 92 -266q94 -105 258 -105q84 0 176 32q28 10 60 26l10 -168q-126 -47 -275 -47q-237 0 -379.5 143.5t-142.5 380.5zM299 -330l148 -29 q51 -10 89 -10q125 0 125 86q0 49 -33 71t-106 22h-27l-18 -1l-2 191h80v-102h18q221 0 221 -179q0 -184 -239 -184q-114 0 -256 41v94z" />
<glyph unicode="&#xe8;" horiz-adv-x="1053" d="M92 524q0 228 124 374q131 155 355 155q214 0 329 -150q104 -136 104 -356v-78h-728q0 -156 105 -257q95 -91 256 -91q146 0 285 76v-164q-137 -58 -326 -58q-243 0 -377 155q-127 147 -127 394zM281 596h544q0 141 -79 236q-69 83 -185 83q-126 0 -202 -100 q-65 -85 -78 -219zM305 1520h188l205 -355h-108z" />
<glyph unicode="&#xe9;" horiz-adv-x="1053" d="M92 524q0 228 124 374q131 155 355 155q214 0 329 -150q104 -136 104 -356v-78h-728q0 -156 105 -257q95 -91 256 -91q146 0 285 76v-164q-137 -58 -326 -58q-243 0 -377 155q-127 147 -127 394zM281 596h544q0 141 -79 236q-69 83 -185 83q-126 0 -202 -100 q-65 -85 -78 -219zM420 1165l205 355h188l-285 -355h-108z" />
<glyph unicode="&#xea;" horiz-adv-x="1053" d="M92 524q0 228 124 374q131 155 355 155q214 0 329 -150q104 -136 104 -356v-78h-728q0 -156 105 -257q95 -91 256 -91q146 0 285 76v-164q-137 -58 -326 -58q-243 0 -377 155q-127 147 -127 394zM270 1165l199 355h180l199 -355h-109l-180 244l-180 -244h-109zM281 596 h544q0 141 -79 236q-69 83 -185 83q-126 0 -202 -100q-65 -85 -78 -219z" />
<glyph unicode="&#xeb;" horiz-adv-x="1053" d="M92 524q0 228 124 374q131 155 355 155q214 0 329 -150q104 -136 104 -356v-78h-728q0 -156 105 -257q95 -91 256 -91q146 0 285 76v-164q-137 -58 -326 -58q-243 0 -377 155q-127 147 -127 394zM281 596h544q0 141 -79 236q-69 83 -185 83q-126 0 -202 -100 q-65 -85 -78 -219zM307 1235v190h170v-190h-170zM639 1235v190h172v-190h-172z" />
<glyph unicode="&#xec;" horiz-adv-x="512" d="M2 1520h188l205 -355h-108zM160 0v1028h192v-1028h-192z" />
<glyph unicode="&#xed;" horiz-adv-x="512" d="M117 1165l205 355h188l-285 -355h-108zM160 0v1028h192v-1028h-192z" />
<glyph unicode="&#xee;" horiz-adv-x="512" d="M-33 1165l199 355h180l199 -355h-109l-180 244l-180 -244h-109zM160 0v1028h192v-1028h-192z" />
<glyph unicode="&#xef;" horiz-adv-x="512" d="M4 1235v190h170v-190h-170zM160 0v1028h192v-1028h-192zM336 1235v190h172v-190h-172z" />
<glyph unicode="&#xf0;" horiz-adv-x="1212" d="M100 518q0 223 101 368q116 167 329 167q234 0 351 -209v184h174v-911q0 -566 -512 -566q-191 0 -344 64l14 172q164 -84 301 -84q175 0 269 104q89 100 89 277v123q-125 -207 -344 -207q-191 0 -309.5 141.5t-118.5 376.5zM301 528q0 -150 61 -251q73 -123 213 -123 q141 0 219 118q68 102 68 250q0 160 -63 260q-76 121 -226 121q-140 0 -213 -123q-59 -101 -59 -252zM321 1478l92 1q0 -71 53 -111q47 -35 140 -35q136 0 177 82q13 27 13 63l95 1q0 -132 -80 -209q-69 -66 -205 -66t-206 66q-79 75 -79 208z" />
<glyph unicode="&#xf1;" horiz-adv-x="1202" d="M170 0v1028h174v-190q115 215 358 215q353 0 353 -432v-621h-191v578q0 311 -229 311q-142 0 -215 -117q-60 -97 -60 -248v-524h-190zM322 1219q23 97 73.5 147.5t125.5 50.5q25 0 35 -2l30 -6l125 -39l27 -2q29 -2 56 18q23 17 38 56h90q-50 -199 -197 -199h-21 q-7 2 -11 2l-35 8l-97 29l-33 8l-22 2q-62 0 -92 -73h-92z" />
<glyph unicode="&#xf2;" horiz-adv-x="1202" d="M92 514q0 244 131 389q136 150 377 150q242 0 379 -150q131 -144 131 -389q0 -243 -132 -388q-138 -151 -378 -151q-235 0 -371.5 144.5t-136.5 394.5zM295 516q0 -159 72 -266q84 -123 235 -123q153 0 235 123q72 106 72 266t-72 267q-83 124 -235 124q-150 0 -234 -125 q-73 -108 -73 -266zM348 1520h188l205 -355h-108z" />
<glyph unicode="&#xf3;" horiz-adv-x="1202" d="M92 514q0 244 131 389q136 150 377 150q242 0 379 -150q131 -144 131 -389q0 -243 -132 -388q-138 -151 -378 -151q-235 0 -371.5 144.5t-136.5 394.5zM295 516q0 -159 72 -266q84 -123 235 -123q153 0 235 123q72 106 72 266t-72 267q-83 124 -235 124q-150 0 -234 -125 q-73 -108 -73 -266zM463 1165l205 355h188l-285 -355h-108z" />
<glyph unicode="&#xf4;" horiz-adv-x="1202" d="M92 514q0 244 131 389q136 150 377 150q242 0 379 -150q131 -144 131 -389q0 -243 -132 -388q-138 -151 -378 -151q-235 0 -371.5 144.5t-136.5 394.5zM295 516q0 -159 72 -266q84 -123 235 -123q153 0 235 123q72 106 72 266t-72 267q-83 124 -235 124q-150 0 -234 -125 q-73 -108 -73 -266zM313 1165l199 355h180l199 -355h-109l-180 244l-180 -244h-109z" />
<glyph unicode="&#xf5;" horiz-adv-x="1202" d="M92 514q0 244 131 389q136 150 377 150q242 0 379 -150q131 -144 131 -389q0 -243 -132 -388q-138 -151 -378 -151q-235 0 -371.5 144.5t-136.5 394.5zM295 516q0 -159 72 -266q84 -123 235 -123q153 0 235 123q72 106 72 266t-72 267q-83 124 -235 124q-150 0 -234 -125 q-73 -108 -73 -266zM301 1219q23 97 73.5 147.5t125.5 50.5q25 0 35 -2l30 -6l125 -39l27 -2q29 -2 56 18q23 17 38 56h90q-50 -199 -197 -199h-21q-7 2 -11 2l-35 8l-97 29l-33 8l-22 2q-62 0 -92 -73h-92z" />
<glyph unicode="&#xf6;" horiz-adv-x="1202" d="M92 514q0 244 131 389q136 150 377 150q242 0 379 -150q131 -144 131 -389q0 -243 -132 -388q-138 -151 -378 -151q-235 0 -371.5 144.5t-136.5 394.5zM295 516q0 -159 72 -266q84 -123 235 -123q153 0 235 123q72 106 72 266t-72 267q-83 124 -235 124q-150 0 -234 -125 q-73 -108 -73 -266zM350 1235v190h170v-190h-170zM682 1235v190h172v-190h-172z" />
<glyph unicode="&#xf7;" horiz-adv-x="1706" d="M254 541v139h1198v-139h-1198zM729 242q0 51 37 88t88 37t88 -37t37 -88q0 -52 -36.5 -88.5t-88.5 -36.5t-88.5 36.5t-36.5 88.5zM729 979q0 52 36.5 89.5t88.5 37.5t88.5 -37.5t36.5 -89.5q0 -51 -37 -88t-88 -37q-52 0 -88.5 36.5t-36.5 88.5z" />
<glyph unicode="&#xf8;" horiz-adv-x="1202" d="M53 -10l146 168q-107 147 -107 356q0 238 132 385q137 154 372 154q191 0 317 -95l146 164l92 -82l-147 -168q48 -64 76 -160.5t28 -207.5q0 -233 -134 -379q-137 -150 -368 -150q-189 0 -315 95l-146 -164zM289 514q0 -123 45 -211l467 531q-81 75 -201 75 q-152 0 -237 -126q-74 -109 -74 -269zM406 201q70 -76 198 -76q154 0 239 126q72 109 72 271q0 52 -11 109t-32 100z" />
<glyph unicode="&#xf9;" horiz-adv-x="1202" d="M147 416v612h191v-569q0 -309 227 -309q275 0 275 403v475h190v-1028h-174v199q-111 -213 -356 -213q-353 0 -353 430zM348 1520h188l205 -355h-108z" />
<glyph unicode="&#xfa;" horiz-adv-x="1202" d="M147 416v612h191v-569q0 -309 227 -309q275 0 275 403v475h190v-1028h-174v199q-111 -213 -356 -213q-353 0 -353 430zM463 1165l205 355h188l-285 -355h-108z" />
<glyph unicode="&#xfb;" horiz-adv-x="1202" d="M147 416v612h191v-569q0 -309 227 -309q275 0 275 403v475h190v-1028h-174v199q-111 -213 -356 -213q-353 0 -353 430zM313 1165l199 355h180l199 -355h-109l-180 244l-180 -244h-109z" />
<glyph unicode="&#xfc;" horiz-adv-x="1202" d="M147 416v612h191v-569q0 -309 227 -309q275 0 275 403v475h190v-1028h-174v199q-111 -213 -356 -213q-353 0 -353 430zM350 1235v190h170v-190h-170zM682 1235v190h172v-190h-172z" />
<glyph unicode="&#xfd;" horiz-adv-x="512" d="M160 0v1028h192v-1028h-192z" />
<glyph unicode="&#xfe;" horiz-adv-x="860" d="M96 39l6 160q69 -35 139 -53q67 -17 134 -17q82 0 138 33q67 40 67 117q0 65 -65 116q-31 23 -122 68q-133 65 -190 115q-92 82 -92 192q0 137 124 210q103 60 250 60q92 0 192 -21q28 -6 64 -18l-8 -155q-127 59 -260 59q-67 0 -113 -25q-59 -31 -59 -92q0 -60 74 -112 q32 -23 125 -66q136 -63 195 -117q89 -83 89 -200q0 -157 -136 -238q-112 -67 -281 -67q-105 0 -206 29q-30 8 -65 22zM166 -330l148 -29q51 -10 89 -10q125 0 125 86q0 49 -33 71t-106 22h-27l-18 -1l-2 191h80v-102h18q221 0 221 -179q0 -184 -239 -184q-114 0 -256 41v94 z" />
<glyph unicode="&#xff;" horiz-adv-x="975" d="M25 1028h204l279 -844l276 844h193l-408 -1132q-59 -165 -125 -239q-92 -103 -239 -103h-29q-32 3 -96 15l16 157l47 -10l43 -3q64 -4 121 56q52 57 105 192zM235 1235v190h170v-190h-170zM567 1235v190h172v-190h-172z" />
<glyph unicode="&#x152;" horiz-adv-x="1903" d="M104 707q0 350 177.5 540t502.5 187q28 -2 76.5 -4t146.5 -6q47 -3 60 -3h688v-153h-567v-451h534v-160h-534v-493h584v-164h-721q-16 0 -162 -5l-146 -5q-293 -10 -470 189q-169 188 -169 528zM311 719q0 -255 101 -402q117 -172 360 -172q26 0 72 3q38 2 138 11l9 1 v1106l-133 11l-76 3q-222 9 -350 -143q-121 -144 -121 -418z" />
<glyph unicode="&#x153;" horiz-adv-x="1870" d="M92 514q0 235 127 383q134 156 365 156q287 0 422 -207q69 103 165.5 155t221.5 52q212 0 326 -151q102 -136 102 -355v-78h-725q0 -157 105 -257q96 -91 255 -91q146 0 283 76v-164q-143 -58 -307 -58q-301 0 -426 211q-151 -211 -414 -211q-236 0 -371 153 q-129 146 -129 386zM295 516q0 -156 73 -264q83 -125 232 -125q155 0 237 121q72 106 72 268q0 160 -71 267q-82 124 -234 124t-236 -124q-73 -108 -73 -267zM1098 596h544q0 140 -79 236q-69 83 -185 83q-123 0 -201 -101q-67 -88 -79 -218z" />
<glyph unicode="&#x178;" horiz-adv-x="1180" d="M-33 1421h234l393 -673l401 673h217l-524 -833v-588h-201v584zM338 1630v190h170v-190h-170zM670 1630v190h172v-190h-172z" />
<glyph unicode="&#x2c6;" d="M223 1165l199 355h180l199 -355h-109l-180 244l-180 -244h-109z" />
<glyph unicode="&#x2dc;" d="M211 1219q23 97 73.5 147.5t125.5 50.5q25 0 35 -2l30 -6l125 -39l27 -2q29 -2 56 18q23 17 38 56h90q-50 -199 -197 -199h-21q-7 2 -11 2l-35 8l-97 29l-33 8l-22 2q-62 0 -92 -73h-92z" />
<glyph unicode="&#x2000;" horiz-adv-x="993" />
<glyph unicode="&#x2001;" horiz-adv-x="1987" />
<glyph unicode="&#x2002;" horiz-adv-x="993" />
<glyph unicode="&#x2003;" horiz-adv-x="1987" />
<glyph unicode="&#x2004;" horiz-adv-x="662" />
<glyph unicode="&#x2005;" horiz-adv-x="496" />
<glyph unicode="&#x2006;" horiz-adv-x="331" />
<glyph unicode="&#x2007;" horiz-adv-x="331" />
<glyph unicode="&#x2008;" horiz-adv-x="248" />
<glyph unicode="&#x2009;" horiz-adv-x="397" />
<glyph unicode="&#x200a;" horiz-adv-x="110" />
<glyph unicode="&#x2010;" horiz-adv-x="692" d="M90 483v156h512v-156h-512z" />
<glyph unicode="&#x2011;" horiz-adv-x="692" d="M90 483v156h512v-156h-512z" />
<glyph unicode="&#x2012;" horiz-adv-x="692" d="M90 483v156h512v-156h-512z" />
<glyph unicode="&#x2013;" d="M0 504v114h1024v-114h-1024z" />
<glyph unicode="&#x2014;" horiz-adv-x="2048" d="M0 504v114h2048v-114h-2048z" />
<glyph unicode="&#x2018;" horiz-adv-x="588" d="M133 950l168 471h166l-127 -471h-207z" />
<glyph unicode="&#x2019;" horiz-adv-x="588" d="M137 950l127 471h207l-168 -471h-166z" />
<glyph unicode="&#x201a;" horiz-adv-x="588" d="M98 -254l127 471h207l-166 -471h-168z" />
<glyph unicode="&#x201c;" horiz-adv-x="1001" d="M133 950l168 471h166l-127 -471h-207zM547 950l166 471h168l-127 -471h-207z" />
<glyph unicode="&#x201d;" horiz-adv-x="1001" d="M137 950l127 471h207l-168 -471h-166zM551 950l125 471h209l-168 -471h-166z" />
<glyph unicode="&#x201e;" horiz-adv-x="1001" d="M98 -254l127 471h207l-166 -471h-168zM512 -254l127 471h207l-168 -471h-166z" />
<glyph unicode="&#x2022;" horiz-adv-x="1208" d="M307 762q0 123 87 209t210 86q122 0 208.5 -86.5t86.5 -208.5q0 -123 -87 -210t-210 -87t-209 87t-86 210z" />
<glyph unicode="&#x2026;" horiz-adv-x="2048" d="M235 0v219h211v-219h-211zM917 0v219h211v-219h-211zM1601 0v219h211v-219h-211z" />
<glyph unicode="&#x202f;" horiz-adv-x="397" />
<glyph unicode="&#x2039;" horiz-adv-x="582" d="M76 532l268 418h168l-258 -418l258 -417h-168z" />
<glyph unicode="&#x203a;" horiz-adv-x="582" d="M70 115l258 417l-258 418h170l266 -418l-268 -417h-168z" />
<glyph unicode="&#x205f;" horiz-adv-x="496" />
<glyph unicode="&#x2122;" horiz-adv-x="1706" d="M242 1378v80h452v-80h-172v-458h-108v458h-172zM813 920v538h150l151 -385l141 385h150v-538h-98v444l-166 -444h-56l-174 444v-444h-98z" />
<glyph unicode="&#x25fc;" horiz-adv-x="1030" d="M0 0v1030h1030v-1030h-1030z" />
</font>
</defs>
</svg>
